<svg xmlns="http://www.w3.org/2000/svg" viewBox="0 0 64 64" fill="none">
  <rect width="64" height="64" rx="14" fill="#0F0F11"/>
  <rect width="64" height="64" rx="14" fill="none" stroke="#27272A" stroke-width="1"/>

  <!-- Keyboard outline -->
  <rect x="8" y="16" width="48" height="32" rx="4" fill="none" stroke="#F75821" stroke-width="2"/>

  <!-- Key rows -->
  <rect x="12" y="20" width="6" height="5" rx="1" fill="#F75821" opacity="0.3"/>
  <rect x="20" y="20" width="6" height="5" rx="1" fill="#F75821" opacity="0.5"/>
  <rect x="28" y="20" width="6" height="5" rx="1" fill="#F75821" opacity="0.7"/>
  <rect x="36" y="20" width="6" height="5" rx="1" fill="#F75821" opacity="0.9"/>
  <rect x="44" y="20" width="8" height="5" rx="1" fill="#F75821" opacity="0.6"/>

  <rect x="12" y="27" width="6" height="5" rx="1" fill="#FF8A50" opacity="0.4"/>
  <rect x="20" y="27" width="6" height="5" rx="1" fill="#FF8A50" opacity="0.8"/>
  <rect x="28" y="27" width="6" height="5" rx="1" fill="#FF8A50" opacity="1"/>
  <rect x="36" y="27" width="6" height="5" rx="1" fill="#FF8A50" opacity="0.8"/>
  <rect x="44" y="27" width="8" height="5" rx="1" fill="#FF8A50" opacity="0.4"/>

  <rect x="12" y="34" width="8" height="5" rx="1" fill="#F75821" opacity="0.2"/>
  <rect x="22" y="34" width="20" height="5" rx="1" fill="#F75821" opacity="0.25"/>
  <rect x="44" y="34" width="8" height="5" rx="1" fill="#F75821" opacity="0.2"/>

  <rect x="12" y="41" width="12" height="4" rx="1" fill="#F75821" opacity="0.15"/>
  <rect x="26" y="41" width="16" height="4" rx="1" fill="#F75821" opacity="0.18"/>
  <rect x="44" y="41" width="8" height="4" rx="1" fill="#F75821" opacity="0.15"/>

  <!-- Glow accent -->
  <rect x="12" y="52" width="40" height="1.5" rx="0.75" fill="#F75821" opacity="0.5"/>
</svg>
